name analog
datacolumns 19
datarows 41
range 0.4475 0.4675
endheader
time	ground_force_vx	ground_force_vy	ground_force_vz	ground_force_px	ground_force_py	ground_force_pz	l_ground_force_vx	l_ground_force_vy	l_ground_force_vz	l_ground_force_px	l_ground_force_py	l_ground_force_pz	ground_torque_x	ground_torque_y	ground_torque_z	l_ground_torque_x	l_ground_torque_y	l_ground_torque_z
0.4475	-0.0	-0.0	-0.0	-0.0	-0.0	-0.0	-0.0	-0.0	-0.0	-0.0	-0.0	-0.0	-0.0	-0.0	-0.0	-0.0	-0.0	-0.0
0.44800000000000006	-0.0	-0.0	-0.0	-0.0	-0.0	-0.0	-0.0	-0.0	-0.0	-0.0	-0.0	-0.0	-0.0	-0.0	-0.0	-0.0	-0.0	-0.0
0.4485	-0.0	-0.0	-0.0	-0.0	-0.0	-0.0	-0.0	-0.0	-0.0	-0.0	-0.0	-0.0	-0.0	-0.0	-0.0	-0.0	-0.0	-0.0
0.44900000000000007	-0.0	-0.0	-0.0	-0.0	-0.0	-0.0	-0.0	-0.0	-0.0	-0.0	-0.0	-0.0	-0.0	-0.0	-0.0	-0.0	-0.0	-0.0
0.4495	-0.0	-0.0	-0.0	-0.0	-0.0	-0.0	-0.0	-0.0	-0.0	-0.0	-0.0	-0.0	-0.0	-0.0	-0.0	-0.0	-0.0	-0.0
0.45000000000000007	-0.0	-0.0	-0.0	-0.0	-0.0	-0.0	-0.0	-0.0	-0.0	-0.0	-0.0	-0.0	-0.0	-0.0	-0.0	-0.0	-0.0	-0.0
0.4505	-0.0	-0.0	-0.0	-0.0	-0.0	-0.0	-0.0	-0.0	-0.0	-0.0	-0.0	-0.0	-0.0	-0.0	-0.0	-0.0	-0.0	-0.0
0.45100000000000007	-0.0	-0.0	-0.0	-0.0	-0.0	-0.0	-0.0	-0.0	-0.0	-0.0	-0.0	-0.0	-0.0	-0.0	-0.0	-0.0	-0.0	-0.0
0.4515	-0.0	-0.0	-0.0	-0.0	-0.0	-0.0	-23.893272399902344	-9.215367317199709	-66.46527862548828	-0.0	-0.0	-0.0	-0.0	-0.0	-0.0	18997.455078125	14495.6318359375	-11809.283203125
0.45200000000000007	-0.0	-0.0	-0.0	-0.3952013552188873	-4.748872756958008	-26.58698463439941	-75.15332794189453	-5.510479927062988	-190.07473754882807	-0.0	-0.0	-0.0	-0.0	-0.0	-0.0	41503.671875	33723.8828125	-24762.00390625
0.4525	-0.0	-0.0	-0.0	-36.22579574584961	1.9723693132400515	-125.5452117919922	-336.6968688964844	-74.87113189697266	-1005.4700927734376	-0.0	-0.0	-0.0	-0.0	-0.0	-0.0	256523.375	149472.40625	-106402.375
0.45300000000000007	-0.0	-0.0	-0.0	-104.82537841796876	-5.572544574737549	-284.06463623046875	-243.66293334960935	-58.857234954833984	-542.4249877929688	-0.0	-0.0	-0.0	-0.0	-0.0	-0.0	136660.84375	85143.4609375	-77935.9609375
0.4535	-0.0	-0.0	-0.0	-356.63507080078125	-28.57935333251953	-785.1766357421875	-23.3790225982666	1.481373310089111	-451.3735961914063	-0.0	-0.0	-0.0	-0.0	-0.0	-0.0	111504.890625	66842.21875	-12325.404296875
0.45400000000000007	-0.0	-0.0	-0.0	-153.06048583984375	34.49755859375	-384.2647399902344	58.432861328125	8.288657188415527	-544.7025146484375	-0.0	-0.0	-0.0	-0.0	-0.0	-0.0	130160.5859375	72299.03125	10850.046875
0.4545	-0.0	-0.0	-0.0	-9.155963897705078	36.4025993347168	-344.77392578125	31.429330825805664	-34.82334518432617	-597.530517578125	-0.0	-0.0	-0.0	-0.0	-0.0	-0.0	138776.453125	78470.53125	1918.134033203125
0.45500000000000007	-0.0	-0.0	-0.0	60.37890625	43.576847076416016	-398.6310424804688	-25.42570686340332	-82.72328186035156	-667.4342041015625	-0.0	-0.0	-0.0	-0.0	-0.0	-0.0	154259.40625	86704.921875	-15174.2275390625
0.4555	-0.0	-0.0	-0.0	31.85038185119629	53.98405838012695	-436.7334899902344	-32.2369499206543	-111.41917419433594	-709.7619018554688	-0.0	-0.0	-0.0	-0.0	-0.0	-0.0	164702.890625	90345.1015625	-17914.392578125
0.45600000000000007	-0.0	-0.0	-0.0	-3.4266316890716557	67.89196014404297	-491.8534240722656	-32.016212463378906	-136.24526977539062	-735.5437622070312	-0.0	-0.0	-0.0	-0.0	-0.0	-0.0	170070.453125	89697.4609375	-18680.759765625
0.4565	-0.0	-0.0	-0.0	-26.816654205322266	82.91620635986328	-553.927490234375	-47.4205436706543	-178.7679443359375	-806.436279296875	-0.0	-0.0	-0.0	-0.0	-0.0	-0.0	187166.921875	91335.984375	-25654.16015625
0.4570000000000001	-0.0	-0.0	-0.0	-30.150537490844727	103.62720489501952	-610.9638671875	-56.78954315185547	-243.3766632080078	-1176.3095703125	-0.0	-0.0	-0.0	-0.0	-0.0	-0.0	288279.0625	92292.484375	-32249.794921875
0.4575	-0.0	-0.0	-0.0	-37.251102447509766	153.24786376953125	-783.4583129882812	271.00830078125	-212.8028106689453	-2134.583251953125	-0.0	-0.0	-0.0	-0.0	-0.0	-0.0	555796.5	75430.4765625	58168.66796875
0.4580000000000001	-0.0	-0.0	-0.0	97.78964233398438	201.0079345703125	-1391.5133056640625	719.8724975585938	-132.14735412597656	-2283.79638671875	-0.0	-0.0	-0.0	-0.0	-0.0	-0.0	606766.5625	42872.71875	181261.59375
0.4585	-0.0	-0.0	-0.0	508.100830078125	186.3118896484375	-1984.5240478515625	491.63189697265625	-84.43675231933594	-1924.1832275390625	-0.0	-0.0	-0.0	-0.0	-0.0	-0.0	510875.59375	53202.1640625	119749.921875
0.4590000000000001	-0.0	-0.0	-0.0	544.7822265625	89.43428039550781	-1587.6796875	228.0101318359375	-133.38076782226562	-1649.051025390625	-0.0	-0.0	-0.0	-0.0	-0.0	-0.0	428821.3125	75403.1328125	39097.3828125
0.4595	-0.0	-0.0	-0.0	252.1932830810547	110.43737030029295	-1419.8575439453125	24.245532989501957	-141.80517578125	-1381.84375	-0.0	-0.0	-0.0	-0.0	-0.0	-0.0	358014.34375	88690.21875	-12953.4501953125
0.4600000000000001	-0.0	-0.0	-0.0	70.07417297363281	152.15826416015625	-1246.85595703125	-118.90765380859376	-166.59115600585938	-1229.9288330078125	-0.0	-0.0	-0.0	-0.0	-0.0	-0.0	313783.34375	100012.1171875	-50923.7421875
0.4605	-0.0	-0.0	-0.0	-63.02594757080078	160.98907470703125	-1132.0048828125	-185.0801544189453	-171.61634826660156	-1085.4498291015625	-0.0	-0.0	-0.0	-0.0	-0.0	-0.0	272948.75	104982.0	-67024.6171875
0.4610000000000001	-0.0	-0.0	-0.0	-144.0589141845703	172.79153442382812	-1036.4549560546875	-205.96263122558597	-171.87303161621094	-992.5841674804688	-0.0	-0.0	-0.0	-0.0	-0.0	-0.0	246342.6875	106579.03125	-72498.5234375
0.4615	-0.0	-0.0	-0.0	-182.212158203125	165.77914428710938	-965.1856079101562	-210.25762939453125	-171.86204528808594	-945.0547485351562	-0.0	-0.0	-0.0	-0.0	-0.0	-0.0	233832.234375	107135.375	-73721.6796875
0.4620000000000001	-0.0	-0.0	-0.0	-194.28909301757807	160.8917694091797	-926.0748901367188	-179.37680053710938	-163.70005798339844	-926.0468139648438	-0.0	-0.0	-0.0	-0.0	-0.0	-0.0	230160.984375	105473.0703125	-65409.00390625
0.4625	-0.0	-0.0	-0.0	-167.37210083007812	160.12356567382812	-900.6026000976562	-131.07032775878906	-151.3104705810547	-925.9462280273438	-0.0	-0.0	-0.0	-0.0	-0.0	-0.0	230597.578125	102102.859375	-52225.8984375
0.4630000000000001	-0.0	-0.0	-0.0	-122.8953628540039	158.84454345703125	-890.0172729492188	-102.12313842773438	-140.7506103515625	-935.971435546875	-0.0	-0.0	-0.0	-0.0	-0.0	-0.0	233697.984375	100946.921875	-44799.08203125
0.4635	-0.0	-0.0	-0.0	-107.699951171875	162.15150451660156	-910.2333984375	-86.95486450195312	-128.62692260742188	-931.5775146484376	-0.0	-0.0	-0.0	-0.0	-0.0	-0.0	234827.953125	99415.953125	-40518.97265625
0.4640000000000001	-0.0	-0.0	-0.0	-111.1786117553711	156.73582458496094	-935.6619262695312	-73.92784118652344	-122.59284973144533	-917.1820068359376	-0.0	-0.0	-0.0	-0.0	-0.0	-0.0	231051.375	97472.9921875	-36881.8671875
0.4645	-0.0	-0.0	-0.0	-107.28763580322266	149.83865356445312	-940.6058959960938	-61.95334243774414	-123.66545104980467	-894.9352416992188	-0.0	-0.0	-0.0	-0.0	-0.0	-0.0	225058.0625	96019.2578125	-33658.07421875
0.4650000000000001	-0.0	-0.0	-0.0	-91.42086029052734	148.72561645507812	-931.6450805664062	-50.91436004638672	-124.29618072509766	-874.890869140625	-0.0	-0.0	-0.0	-0.0	-0.0	-0.0	219940.921875	93938.6015625	-30659.8828125
0.4655	-0.0	-0.0	-0.0	-74.92924499511719	150.7556610107422	-922.555908203125	-41.50004196166992	-121.21737670898438	-857.674560546875	-0.0	-0.0	-0.0	-0.0	-0.0	-0.0	215956.890625	92238.65625	-27460.26953125
0.4660000000000001	-0.0	-0.0	-0.0	-59.294551849365234	149.8738555908203	-899.730224609375	-31.06938362121582	-116.83758544921876	-843.6927490234375	-0.0	-0.0	-0.0	-0.0	-0.0	-0.0	213610.359375	90768.15625	-24141.83203125
0.4665	-0.0	-0.0	-0.0	-52.02318572998047	148.4073944091797	-872.0545654296875	-22.944730758666992	-113.80615234375	-841.4554443359375	-0.0	-0.0	-0.0	-0.0	-0.0	-0.0	212798.9375	89313.125	-21739.224609375
0.4670000000000001	-0.0	-0.0	-0.0	-49.93639755249024	143.91664123535156	-849.0999755859375	-16.919898986816406	-110.84524536132812	-838.104736328125	-0.0	-0.0	-0.0	-0.0	-0.0	-0.0	213244.734375	87598.3671875	-19661.82421875
0.4675	-0.0	-0.0	-0.0	-48.96966552734375	136.94009399414062	-825.7496337890625	-9.6220121383667	-107.9527359008789	-834.6124877929688	-0.0	-0.0	-0.0	-0.0	-0.0	-0.0	213046.90625	85879.3203125	-17348.046875
